<?xml version="1.0" encoding="UTF-8" standalone="no"?>
<!-- Created with Inkscape (http://www.inkscape.org/) -->

<svg
   width="84.666664mm"
   height="84.666664mm"
   viewBox="0 0 84.666664 84.666664"
   version="1.1"
   id="svg1"
   xml:space="preserve"
   xmlns="http://www.w3.org/2000/svg"
   xmlns:svg="http://www.w3.org/2000/svg"><defs
     id="defs1"><clipPath
       clipPathUnits="userSpaceOnUse"
       id="clipPath2"><rect
         style="fill:#ffffff;stroke-width:0.264583"
         id="rect3"
         width="84.75248"
         height="19.34988"
         x="65.36734"
         y="137.43765" /></clipPath></defs><g
     id="layer1"
     transform="translate(-65.36734,-105.05885)"><path
       style="fill:#fdd1cb;fill-opacity:1"
       d="m 80.44859,186.9386 c 0,-0.43147 1.4237,-2.84804 1.517085,-2.57508 0.131901,0.38553 -0.983066,2.71616 -1.299401,2.71616 -0.119726,0 -0.217684,-0.0635 -0.217684,-0.14108 z m -11.711631,-0.28166 c -0.08699,-0.087 -0.116776,-0.29534 -0.0662,-0.46302 0.05058,-0.16767 0.163707,-0.63228 0.251394,-1.03247 0.08769,-0.40018 0.288964,-0.7276 0.447281,-0.7276 0.158318,0 0.219317,0.17859 0.135555,0.39688 -0.08909,0.23217 -0.0038,0.39687 0.205417,0.39687 0.196742,0 0.426408,-0.26269 0.510369,-0.58376 0.266167,-1.01782 0.485452,-0.30869 0.295742,0.95639 -0.182796,1.21897 -0.651264,1.69635 -0.651264,0.66366 0,-0.32338 -0.136702,-0.50565 -0.33073,-0.44098 -0.181901,0.0606 -0.330729,0.23923 -0.330729,0.39688 0,0.38194 -0.269596,0.63439 -0.466839,0.43715 z m 2.63675,-0.009 c -0.337791,-0.33779 -0.192431,-1.64015 0.230238,-2.06282 0.552281,-0.55228 0.830485,-0.52422 1.174432,0.11845 0.506364,0.94615 -0.713849,2.63519 -1.40467,1.94437 z m 1.074801,-1.47571 c -0.181225,-0.54367 -0.606554,-0.25696 -0.671015,0.45233 -0.06899,0.75908 -0.05439,0.77111 0.334296,0.27528 0.223537,-0.28516 0.375061,-0.61258 0.336719,-0.72761 z m 1.385497,1.44277 c 0,-0.1101 0.110751,-0.58635 0.246113,-1.05834 0.195744,-0.68251 0.168669,-0.85815 -0.132291,-0.85815 -0.208123,0 -0.378406,-0.11906 -0.378406,-0.26458 0,-0.32684 1.765676,-0.35386 1.965784,-0.0301 0.07971,0.12898 -0.07572,0.29221 -0.345408,0.36273 -0.314005,0.0821 -0.555118,0.47353 -0.670472,1.08841 -0.151215,0.80605 -0.68532,1.39836 -0.68532,0.76001 z m 2.043813,0.002 c -0.593674,-1.13186 1.138571,-3.24112 1.792645,-2.18281 0.08994,0.14552 -0.08163,0.26458 -0.38126,0.26458 -0.29963,0 -0.544782,0.11907 -0.544782,0.26459 0,0.14552 0.178594,0.26458 0.396875,0.26458 0.218281,0 0.396875,0.11906 0.396875,0.26458 0,0.14552 -0.238125,0.26459 -0.529167,0.26459 -0.291041,0 -0.529166,0.11906 -0.529166,0.26458 0,0.14552 0.245151,0.26458 0.544781,0.26458 0.29963,0 0.471197,0.11907 0.38126,0.26459 -0.190038,0.30749 -1.374579,0.35876 -1.528061,0.0661 z m 2.530677,-0.89193 c 0.08044,-0.5997 0.286962,-1.22478 0.458944,-1.38906 0.239456,-0.22874 0.269884,-0.0353 0.129915,0.82578 -0.150769,0.92756 -0.109202,1.12448 0.237352,1.12448 0.231073,0 0.420132,0.11907 0.420132,0.26459 0,0.14552 -0.313333,0.26458 -0.696296,0.26458 -0.663025,0 -0.689308,-0.0521 -0.550047,-1.09037 z m 4.862315,0.91398 c -0.291111,-0.29111 -0.207017,-2.5196 0.08819,-2.33715 0.145521,0.0899 0.265029,0.48392 0.265573,0.87551 9.81e-4,0.70679 0.0051,0.70523 0.569788,-0.21405 0.771072,-1.25536 0.94548,-0.54835 0.194395,0.78803 -0.599116,1.06598 -0.788922,1.21669 -1.11795,0.88766 z m 1.940277,0.0252 c 0,-0.0831 0.169943,-0.32113 0.37765,-0.52884 0.217847,-0.21785 0.335125,-0.71366 0.277153,-1.17173 -0.08781,-0.69384 -0.01859,-0.79407 0.548392,-0.79407 0.616503,0 0.902217,0.38517 0.425239,0.57326 -0.341878,0.13482 -0.625308,1.5434 -0.310558,1.5434 0.148294,0 0.269624,0.11907 0.269624,0.26459 0,0.14552 -0.357187,0.26458 -0.79375,0.26458 -0.436562,0 -0.79375,-0.068 -0.79375,-0.15119 z m 2.38125,0.004 c 0,-0.0811 0.132825,-0.67491 0.295166,-1.31963 0.345001,-1.37012 0.808084,-1.36044 0.498902,0.0104 -0.182116,0.80748 -0.144327,0.92745 0.292129,0.92745 0.275717,0 0.501303,0.11907 0.501303,0.26459 0,0.14552 -0.357187,0.26458 -0.79375,0.26458 -0.436562,0 -0.79375,-0.0663 -0.79375,-0.14742 z m 2.544245,-0.97706 c 0.233405,-1.55074 0.714602,-1.98622 0.584718,-0.52917 -0.08366,0.93854 -0.02252,1.12448 0.369775,1.12448 0.258507,0 0.470012,0.11907 0.470012,0.26459 0,0.14552 -0.358594,0.26458 -0.796876,0.26458 -0.787662,0 -0.79492,-0.013 -0.627629,-1.12448 z m 1.965628,0.92604 c 0.104389,-1.7326 1.731607,-2.71207 1.868123,-1.12448 0.07993,0.9295 -0.09827,1.11629 -0.805879,0.84476 -0.209554,-0.0804 -0.427835,-0.006 -0.485069,0.16598 -0.113443,0.34033 -0.596563,0.43554 -0.577175,0.11374 z m 1.222766,-1.30086 c -0.09701,-0.097 -0.176389,-0.0176 -0.176389,0.17638 0,0.19403 0.07937,0.27341 0.176389,0.17639 0.09701,-0.097 0.09701,-0.25576 0,-0.35277 z m 1.411111,1.1272 c 0,-0.24185 0.185245,-0.32367 0.529167,-0.23373 0.610837,0.15974 0.726638,-0.32011 0.132292,-0.54818 -0.496098,-0.19037 -0.51318,-0.80134 -0.03354,-1.19941 0.394981,-0.3278 1.308758,-0.11418 1.081876,0.25292 -0.07658,0.12392 -0.314026,0.15824 -0.527647,0.0763 -0.213621,-0.082 -0.388402,-0.03 -0.388402,0.11554 0,0.14552 0.178594,0.33312 0.396875,0.41688 0.52451,0.20127 0.509455,1.12742 -0.02164,1.33122 -0.696293,0.26719 -1.168986,0.18167 -1.168986,-0.2115 z M 75.68609,184.03698 c 0,-0.0728 0.05953,-0.1323 0.132291,-0.1323 0.07276,0 0.132292,0.0595 0.132292,0.1323 0,0.0728 -0.05953,0.13229 -0.132292,0.13229 -0.07276,0 -0.132291,-0.0595 -0.132291,-0.13229 z m -2.116667,-0.26459 c 0,-0.0728 0.05953,-0.13229 0.132292,-0.13229 0.07276,0 0.132292,0.0595 0.132292,0.13229 0,0.0728 -0.05953,0.13229 -0.132292,0.13229 -0.07276,0 -0.132292,-0.0595 -0.132292,-0.13229 z m 40.481247,-2.64583 c 0,-0.0728 0.0595,-0.13229 0.13229,-0.13229 0.0728,0 0.1323,0.0595 0.1323,0.13229 0,0.0728 -0.0595,0.13229 -0.1323,0.13229 -0.0728,0 -0.13229,-0.0595 -0.13229,-0.13229 z m -13.66527,-0.57184 c -2.234875,-1.15947 -1.829375,-4.81663 0.58427,-5.26943 2.43032,-0.45593 4.0729,1.85224 2.99761,4.21225 -0.51414,1.12842 -2.38196,1.6797 -3.58188,1.05718 z m 1.87242,-1.56373 c 0.75413,-0.75413 0.23496,-2.23006 -0.78445,-2.23006 -0.40376,0 -0.91645,0.79378 -0.91645,1.41892 0,0.42746 0.68961,1.22692 1.05834,1.22692 0.12473,0 0.41388,-0.1871 0.64256,-0.41578 z m 4.20297,1.48728 c -3.08062,-1.87839 -0.6226,-6.55519 2.57594,-4.90117 0.91824,0.47484 0.99231,0.92433 0.23071,1.39996 -0.41449,0.25885 -0.6394,0.26914 -0.91335,0.0418 -0.66243,-0.54977 -1.44717,-0.0519 -1.44717,0.91814 0,1.20525 0.58737,1.66587 1.42468,1.11724 0.58321,-0.38214 0.66795,-0.37715 1.06604,0.0627 0.6056,0.66919 0.27139,1.29089 -0.8634,1.60608 -1.22533,0.34035 -1.08707,0.35667 -2.07345,-0.24477 z m -37.389283,-2.39442 c 0,-3.21904 0.992842,-3.88397 2.172827,-1.45521 0.318148,0.65485 0.644227,1.19063 0.72462,1.19063 0.08039,0 0.430401,-0.53578 0.777795,-1.19063 1.258641,-2.37256 2.145591,-1.771 2.145591,1.45521 0,2.98627 -1.552787,4.4544 -1.609083,1.52136 -0.02158,-1.12448 -0.02158,-1.12448 -0.397634,-0.26459 -0.477554,1.092 -1.318442,1.1552 -1.760169,0.13229 -0.314205,-0.7276 -0.314205,-0.7276 -0.406298,0.26459 -0.248814,2.68066 -1.647649,1.27673 -1.647649,-1.65365 z m 6.394097,2.43283 c 0.04851,-0.11715 0.504913,-1.30663 1.014236,-2.64329 1.568818,-4.11718 2.557843,-3.60893 4.657169,2.39327 0.215843,0.61712 -1.679119,0.68255 -1.915656,0.0661 -0.08733,-0.22759 -0.482342,-0.39688 -0.926041,-0.39688 -0.443699,0 -0.838709,0.16929 -0.926042,0.39688 -0.09496,0.24746 -0.498569,0.39687 -1.072078,0.39687 -0.505881,0 -0.880095,-0.0959 -0.831588,-0.213 z m 3.130902,-2.43283 c 0,-0.14552 -0.119062,-0.26458 -0.264583,-0.26458 -0.145521,0 -0.264583,0.11906 -0.264583,0.26458 0,0.14552 0.119062,0.26458 0.264583,0.26458 0.145521,0 0.264583,-0.11906 0.264583,-0.26458 z m 3.231123,-0.0518 c 0.07617,-2.69761 0.07617,-2.69761 1.663669,-2.62744 2.307261,0.10199 2.870255,0.54663 2.666913,2.10629 -0.250259,1.91952 -0.254705,2.25923 -0.03607,2.75573 0.358141,0.8133 -1.177898,0.59756 -1.883788,-0.26458 -0.595736,-0.7276 -0.595736,-0.7276 -0.605251,0 -0.0086,0.65485 -0.103114,0.7276 -0.94558,0.7276 -0.936065,0 -0.936065,0 -0.859896,-2.6976 z m 2.740284,-0.50698 c 0.199455,-0.32272 -0.394774,-0.80799 -0.733253,-0.5988 -0.116089,0.0718 -0.21107,0.30201 -0.21107,0.51171 0,0.44897 0.681804,0.51186 0.944323,0.0871 z m 9.880665,2.86544 c -1.857255,-1.42595 -0.866396,-5.21711 1.363549,-5.21711 0.819791,0 2.363545,0.72728 2.363545,1.11348 0,0.63686 -0.986331,1.05155 -1.604732,0.6747 -0.473202,-0.28836 -0.613201,-0.25149 -1.045067,0.27527 -0.846246,1.0322 0.04024,2.38312 1.213133,1.84871 1.129676,-0.51471 2.010006,0.78947 0.924894,1.3702 -0.695134,0.37203 -2.698746,0.33137 -3.215322,-0.0653 z m 16.671322,-0.43425 c -1.33346,-1.33347 -0.95104,-3.59341 0.7442,-4.39785 2.33475,-1.10791 4.59918,0.95135 3.77898,3.43658 -0.62642,1.89808 -3.06757,2.41688 -4.52318,0.96127 z m 2.8293,-1.50416 c 0.19483,-0.77626 -0.019,-1.38791 -0.55735,-1.59451 -0.59882,-0.22978 -1.19326,0.39068 -1.19326,1.24548 0,1.32306 1.43437,1.60904 1.75061,0.34903 z m 2.95446,1.94683 c -0.78935,-0.61695 -0.14403,-1.56406 0.83349,-1.22329 0.44011,0.15342 0.95155,0.22251 1.13654,0.15353 0.35516,-0.13242 0.32649,-0.14937 -1.18974,-0.70359 -2.32122,-0.84845 -0.90221,-3.75568 1.63555,-3.35088 1.17969,0.18818 1.46928,0.49643 1.10531,1.17652 -0.23528,0.43963 -0.46274,0.51276 -1.21514,0.39066 -1.16892,-0.18969 -1.24559,0.31806 -0.0831,0.55055 1.70782,0.34157 2.3423,1.73989 1.27413,2.80806 -0.61627,0.61627 -2.80361,0.74039 -3.49701,0.19844 z m -26.533196,-0.39768 c -1.886641,-0.30643 -2.057106,-0.5445 -1.34367,-1.87661 0.206867,-0.38625 0.441255,-0.91064 0.520863,-1.1653 0.189167,-0.60513 1.484266,-0.63815 1.484266,-0.0378 0,0.26512 -0.146221,0.36908 -0.388402,0.27614 -0.562997,-0.21604 -0.72298,0.21569 -0.368348,0.99402 0.28364,0.62252 0.335097,0.64002 0.643187,0.21868 0.455836,-0.6234 0.801969,-0.20538 0.441988,0.53378 -0.159352,0.3272 -0.328204,0.71825 -0.375225,0.86899 -0.04702,0.15075 -0.323617,0.23541 -0.614659,0.18814 z m -0.412077,-1.15208 c -0.20288,-0.37909 -0.384814,-0.47117 -0.568338,-0.28764 -0.33524,0.33524 -0.04793,0.84521 0.476173,0.84521 0.315213,0 0.332995,-0.10758 0.09217,-0.55757 z m 27.267283,-3.80806 c 0,-0.0728 0.0595,-0.13229 0.13229,-0.13229 0.0728,0 0.1323,0.0595 0.1323,0.13229 0,0.0728 -0.0595,0.13229 -0.1323,0.13229 -0.0728,0 -0.13229,-0.0595 -0.13229,-0.13229 z m 4.6896,-23.24514 c -0.84046,-0.35533 -1.73343,-0.80074 -1.98437,-0.98978 -1.27155,-0.9579 -2.19525,-2.00901 -2.45372,-2.7922 -0.79942,-2.42227 -8.83563,-1.98218 -13.70055,0.75027 -0.95716,0.53761 -1.63221,0.48063 -1.63221,-0.13775 0,-0.35723 2.932,-1.82422 4.36461,-2.18378 1.621,-0.40685 0.0858,-0.77037 -3.25336,-0.77037 -3.64291,0 -5.325759,0.39563 -8.560667,2.01255 -1.510951,0.75522 -2.977556,0.48526 -1.793984,-0.33023 0.707054,-0.48716 3.690181,-1.79495 4.81647,-2.11151 1.046078,-0.29402 1.076182,-0.32764 0.458183,-0.51169 -1.964508,-0.58506 -5.882679,-0.18709 -11.773958,1.19589 -9.330056,2.19023 -12.827113,2.84916 -16.271874,3.06603 -5.11366,0.32193 -4.7625,0.35221 -4.7625,-0.41062 0,-0.66146 0,-0.66146 2.810315,-0.66146 2.750106,0 6.587339,-0.45528 9.757393,-1.1577 0.873125,-0.19347 4.623594,-1.03675 8.334375,-1.87395 7.51857,-1.69629 10.270079,-1.92537 12.832291,-1.06835 0.755395,0.25267 2.457956,0.48392 3.968746,0.53905 1.46219,0.0534 3.29685,0.29787 4.10105,0.54655 1.03604,0.32036 2.25543,0.43684 4.23333,0.40437 1.55937,-0.0256 3.52483,0.11535 4.48024,0.32132 1.60279,0.34552 1.73402,0.33678 2.24896,-0.14984 1.7397,-1.64403 5.74657,-2.44233 8.88277,-1.76973 1.4578,0.31264 1.8963,1.24003 0.51935,1.09838 -7.64775,-0.78675 -11.40702,1.83729 -7.10095,4.95659 3.09892,2.24484 5.73273,2.11711 11.67035,-0.566 5.07379,-2.29276 8.7239,-2.72154 16.2748,-1.9118 1.53405,0.1645 1.65364,0.22457 1.65364,0.83054 0,0.60085 -0.0728,0.63955 -0.90861,0.48276 -6.32136,-1.1859 -12.46814,-0.50172 -17.26585,1.9218 -3.8813,1.9606 -7.28401,2.39539 -9.94427,1.27066 z M 65.36734,105.32344 c 0,-0.17529 14.2875,-0.26459 42.33333,-0.26459 28.04583,0 42.33333,0.0893 42.33333,0.26459 0,0.17528 -14.2875,0.26458 -42.33333,0.26458 -28.04583,0 -42.33333,-0.0893 -42.33333,-0.26458 z"
       id="path1"
       clip-path="url(#clipPath2)" /></g></svg>
