<?xml version="1.0" standalone="no"?>
<!DOCTYPE svg PUBLIC "-//W3C//DTD SVG 20010904//EN"
 "http://www.w3.org/TR/2001/REC-SVG-20010904/DTD/svg10.dtd">
<svg version="1.0" xmlns="http://www.w3.org/2000/svg"
 width="2804.000000pt" height="561.000000pt" viewBox="0 0 2804.000000 561.000000"
 preserveAspectRatio="xMidYMid meet">

<g transform="translate(0.000000,561.000000) scale(0.100000,-0.100000)"
fill="#000000" stroke="none">
<path d="M9245 3319 c-322 -22 -635 -54 -935 -95 -447 -62 -386 -52 -1915
-309 -1061 -178 -1836 -264 -2396 -265 -326 0 -734 32 -978 76 -73 14 -142 22
-153 19 -46 -15 -70 -71 -52 -120 11 -28 55 -42 214 -69 261 -44 439 -57 840
-63 414 -6 700 7 1130 53 241 25 1085 147 1450 209 268 46 1242 208 1440 240
845 136 1621 196 2025 156 322 -31 855 -132 855 -161 0 -4 -17 -10 -37 -14
-70 -11 -411 -105 -560 -155 -301 -100 -607 -224 -628 -254 -33 -48 2 -127 56
-127 12 0 119 38 238 84 272 106 408 153 608 210 682 195 1329 262 1853 190
224 -30 632 -132 590 -147 -8 -2 -67 -17 -130 -32 -137 -33 -378 -109 -533
-169 -186 -72 -381 -157 -399 -172 -25 -23 -30 -61 -14 -93 28 -53 65 -54 178
-5 272 118 661 250 933 318 235 58 585 112 884 135 171 14 500 14 656 0 247
-21 555 -80 769 -147 56 -18 59 -20 76 -71 110 -311 678 -616 1290 -693 162
-20 644 -17 795 5 433 64 613 119 1295 395 686 278 1154 386 1865 432 323 21
874 8 1310 -30 303 -27 663 -60 690 -65 60 -9 737 -75 985 -95 460 -37 880
-37 1130 1 105 16 142 79 81 140 -32 32 -37 33 -131 19 -157 -23 -431 -31
-666 -20 -373 17 -511 28 -1384 119 -999 104 -1552 128 -2095 90 -439 -30
-764 -85 -1140 -191 -227 -64 -419 -132 -775 -275 -502 -202 -749 -281 -1060
-337 -751 -137 -1587 49 -1941 432 -96 103 -115 181 -65 267 77 131 276 247
563 329 207 59 307 71 568 70 252 -1 371 -16 550 -70 131 -39 146 -40 174 -11
29 32 31 91 5 117 -39 37 -247 90 -454 116 -184 23 -502 15 -680 -16 -235 -41
-484 -131 -636 -228 -91 -59 -211 -177 -243 -240 -16 -31 -27 -42 -39 -38
-348 104 -599 148 -954 168 -319 18 -681 -7 -1057 -71 l-104 -17 -88 38 c-243
104 -592 191 -899 224 -255 27 -717 9 -1017 -39 -70 -11 -89 -11 -120 0 -346
128 -639 196 -1020 239 -165 18 -616 26 -798 13z"/>
</g>
</svg>
